<?xml version="1.0"?>
<svg xmlns="http://www.w3.org/2000/svg" width="512" height="512" viewBox="0 0 512 512"><g><path d="M408,72.4V16a8,8,0,0,0-8-8H112a8,8,0,0,0-8,8V32.4A20.035,20.035,0,0,0,88,52V252a20.02,20.02,0,0,0,20,20H224v72H208a8,8,0,0,0-6.63,12.48l48,71a8,8,0,0,0,13.26,0l48-71A8,8,0,0,0,304,344H288V272H404a20.02,20.02,0,0,0,20-20V92A20.035,20.035,0,0,0,408,72.4ZM120,24H392V72H228.53L206.86,35.88A8,8,0,0,0,200,32H120ZM288.94,360,256,408.72,223.06,360H232a8,8,0,0,0,8-8V216h32V352a8,8,0,0,0,8,8ZM408,252a4,4,0,0,1-4,4H288V208a8,8,0,0,0-8-8H232a8,8,0,0,0-8,8v48H108a4,4,0,0,1-4-4V52a4,4,0,0,1,4-4h87.47l21.67,36.12A8,8,0,0,0,224,88H404a4,4,0,0,1,4,4Z"/><path d="M344,248h48a8,8,0,0,0,8-8V216a8,8,0,0,0-8-8H344a8,8,0,0,0-8,8v24A8,8,0,0,0,344,248Zm8-24h32v8H352Z"/><path d="M496,440H16a8,8,0,0,0-8,8v48a8,8,0,0,0,8,8H496a8,8,0,0,0,8-8V448A8,8,0,0,0,496,440ZM392,456h8v32h-8Zm-16,32h-8V456h8Zm40-32h8v32h-8ZM24,456H352v32H24Zm464,32H440V456h48Z"/></g></svg>
